<?xml version="1.0" standalone="no"?>
<!DOCTYPE svg PUBLIC "-//W3C//DTD SVG 20010904//EN"
 "http://www.w3.org/TR/2001/REC-SVG-20010904/DTD/svg10.dtd">
<svg version="1.0" xmlns="http://www.w3.org/2000/svg"
 width="364.000000pt" height="364.000000pt" viewBox="0 0 364.000000 364.000000"
 preserveAspectRatio="xMidYMid meet">
<metadata>
Created by potrace 1.14, written by Peter Selinger 2001-2017
</metadata>
<g transform="translate(0.000000,364.000000) scale(0.100000,-0.100000)"
fill="#000000" stroke="none">
<path d="M1888 3565 c-2 -1 -44 -5 -95 -8 -50 -4 -145 -15 -210 -26 -65 -11
-143 -23 -173 -27 -121 -15 -282 -97 -389 -198 -35 -34 -99 -106 -143 -161
-43 -55 -82 -105 -87 -111 -19 -24 -127 -201 -139 -228 -26 -59 -66 -267 -87
-451 -3 -27 -8 -57 -10 -65 -2 -8 -7 -49 -10 -90 -4 -41 -9 -88 -11 -105 -13
-73 5 -366 29 -475 10 -48 53 -160 72 -188 25 -36 181 -209 235 -259 l34 -32
-44 11 c-47 12 -247 -4 -298 -23 -86 -33 -168 -109 -164 -153 14 -193 14 -223
0 -251 -12 -23 -15 -59 -13 -154 2 -67 6 -138 9 -156 4 -18 2 -45 -4 -60 -6
-15 -11 -58 -12 -95 -2 -88 33 -164 94 -206 l41 -29 1126 -1 1126 0 113 22
c146 30 184 51 220 123 25 53 27 64 28 201 0 80 5 177 9 215 5 39 8 93 7 120
-4 143 -11 255 -16 263 -3 5 -10 40 -15 77 -13 92 -47 137 -112 151 -36 7
-167 7 -229 0 -81 -9 -320 -14 -320 -6 0 4 15 12 33 18 89 29 225 85 279 114
109 58 195 161 264 316 19 43 39 85 45 95 10 18 70 203 84 262 11 44 15 393 5
419 -5 13 -11 59 -15 102 -3 43 -8 93 -10 109 -3 17 -7 46 -9 65 -14 100 -135
364 -233 506 -56 82 -117 134 -221 187 -131 68 -411 155 -552 172 -59 8 -227
15 -232 10z m-792 -2227 c30 -28 41 -44 33 -49 -24 -15 -54 8 -84 64 -22 39
-2 34 51 -15z m1734 -594 c0 -3 -22 -28 -50 -55 -27 -26 -52 -59 -56 -73 -6
-24 -44 -68 -44 -50 1 5 13 35 28 66 20 43 39 65 72 87 52 34 50 33 50 25z"/>
</g>
</svg>
